<?xml version="1.0" encoding="UTF-8"?>
<!DOCTYPE svg PUBLIC "-//W3C//DTD SVG 1.1//EN" "http://www.w3.org/Graphics/SVG/1.1/DTD/svg11.dtd">
<svg xmlns="http://www.w3.org/2000/svg" version="1.1" width="980px" height="694px" style="shape-rendering:geometricPrecision; text-rendering:geometricPrecision; image-rendering:optimizeQuality; fill-rule:evenodd; clip-rule:evenodd" xmlns:xlink="http://www.w3.org/1999/xlink">
<g><path style="opacity:1" fill="#f7f7f7" d="M 301.5,-0.5 C 302.833,-0.5 304.167,-0.5 305.5,-0.5C 313.723,0.849342 321.723,3.34934 329.5,7C 342.421,13.5988 355.088,20.5988 367.5,28C 450.833,28.6667 534.167,28.6667 617.5,28C 628.058,21.5573 638.725,15.3906 649.5,9.5C 651.027,9.57298 652.027,8.90632 652.5,7.5C 663.232,1.05528 674.899,-1.11138 687.5,1C 691.186,1.55884 694.853,2.2255 698.5,3C 742.775,17.7577 786.442,34.091 829.5,52C 831.788,54.7433 833.955,57.5767 836,60.5C 840.928,70.7832 844.761,81.4499 847.5,92.5C 847.12,94.698 847.787,96.3646 849.5,97.5C 852.836,107.336 856.669,117.003 861,126.5C 889.455,185.702 914.288,246.369 935.5,308.5C 935.12,310.698 935.787,312.365 937.5,313.5C 937.5,313.833 937.5,314.167 937.5,314.5C 937.12,316.698 937.787,318.365 939.5,319.5C 944.438,334.315 948.771,349.315 952.5,364.5C 952.41,367.152 953.076,369.485 954.5,371.5C 954.41,374.152 955.076,376.485 956.5,378.5C 957.768,380.905 958.435,383.572 958.5,386.5C 958.41,389.152 959.076,391.485 960.5,393.5C 970.294,430.265 976.627,467.598 979.5,505.5C 979.5,525.167 979.5,544.833 979.5,564.5C 977.231,599.806 965.731,631.806 945,660.5C 938.833,668 932,674.833 924.5,681C 911.367,692.184 896.367,695.684 879.5,691.5C 877.485,690.076 875.152,689.41 872.5,689.5C 867.022,687.363 862.355,684.03 858.5,679.5C 858.027,678.094 857.027,677.427 855.5,677.5C 854.5,677.167 853.833,676.5 853.5,675.5C 852.738,673.738 851.404,672.738 849.5,672.5C 848.5,672.167 847.833,671.5 847.5,670.5C 847.027,669.094 846.027,668.427 844.5,668.5C 843.167,667.833 842.167,666.833 841.5,665.5C 841.027,664.094 840.027,663.427 838.5,663.5C 834.895,661.528 831.895,658.861 829.5,655.5C 828.738,653.738 827.404,652.738 825.5,652.5C 824.167,651.833 823.167,650.833 822.5,649.5C 822.027,648.094 821.027,647.427 819.5,647.5C 809.179,639.178 799.179,630.511 789.5,621.5C 789.027,620.094 788.027,619.427 786.5,619.5C 784.833,618.5 783.5,617.167 782.5,615.5C 781.738,613.738 780.404,612.738 778.5,612.5C 777.167,611.833 776.167,610.833 775.5,609.5C 774.738,607.738 773.404,606.738 771.5,606.5C 767.895,604.528 764.895,601.861 762.5,598.5C 761.738,596.738 760.404,595.738 758.5,595.5C 754.895,593.528 751.895,590.861 749.5,587.5C 748.738,585.738 747.404,584.738 745.5,584.5C 744.5,584.167 743.833,583.5 743.5,582.5C 742.738,580.738 741.404,579.738 739.5,579.5C 738.5,579.167 737.833,578.5 737.5,577.5C 736.738,575.738 735.404,574.738 733.5,574.5C 732.5,574.167 731.833,573.5 731.5,572.5C 730.738,570.738 729.404,569.738 727.5,569.5C 726.5,569.167 725.833,568.5 725.5,567.5C 725.027,566.094 724.027,565.427 722.5,565.5C 721.167,564.833 720.167,563.833 719.5,562.5C 719.027,561.094 718.027,560.427 716.5,560.5C 715.5,560.167 714.833,559.5 714.5,558.5C 714.027,557.094 713.027,556.427 711.5,556.5C 710.5,556.167 709.833,555.5 709.5,554.5C 709.027,553.094 708.027,552.427 706.5,552.5C 705.5,552.167 704.833,551.5 704.5,550.5C 704.027,549.094 703.027,548.427 701.5,548.5C 687.627,537.152 671.627,531.652 653.5,532C 543.169,530.047 432.836,530.047 322.5,532C 309.282,532.961 297.282,537.295 286.5,545C 278.833,550.667 271.167,556.333 263.5,562C 214.752,604.086 165.418,645.419 115.5,686C 109.097,690.507 102.097,693.007 94.5,693.5C 93.5,693.5 92.5,693.5 91.5,693.5C 85.9546,692.795 80.2879,691.961 74.5,691C 71.1598,689.997 68.1598,688.497 65.5,686.5C 65.0269,685.094 64.0269,684.427 62.5,684.5C 48.5,675.167 36.8333,663.5 27.5,649.5C 27.7148,647.821 27.0481,646.821 25.5,646.5C 10.3539,620.068 1.68719,591.734 -0.5,561.5C -0.5,540.167 -0.5,518.833 -0.5,497.5C 3.9556,457.888 11.6223,418.888 22.5,380.5C 23.9238,378.485 24.5905,376.152 24.5,373.5C 24.2322,371.901 24.5655,370.568 25.5,369.5C 26.9238,367.485 27.5905,365.152 27.5,362.5C 27.8993,358.884 28.8993,355.55 30.5,352.5C 31.9238,350.485 32.5905,348.152 32.5,345.5C 32.6287,343.784 32.962,342.117 33.5,340.5C 35.2132,339.365 35.8799,337.698 35.5,335.5C 59.5674,259.361 89.7341,185.695 126,114.5C 130.535,104.06 134.368,93.3937 137.5,82.5C 139.213,81.3646 139.88,79.698 139.5,77.5C 141.214,71.0057 143.88,65.0057 147.5,59.5C 148.906,59.0269 149.573,58.0269 149.5,56.5C 150.989,52.8467 153.656,50.3467 157.5,49C 170.408,43.8648 183.408,39.0314 196.5,34.5C 199.716,34.6545 202.383,33.6545 204.5,31.5C 212.752,28.3045 221.086,25.3045 229.5,22.5C 232.716,22.6545 235.383,21.6545 237.5,19.5C 245.012,16.4403 252.678,13.7737 260.5,11.5C 263.716,11.6545 266.383,10.6545 268.5,8.5C 279.229,4.0701 290.229,1.0701 301.5,-0.5 Z M 411.5,61.5 C 414.053,62.2549 416.72,62.9216 419.5,63.5C 421.393,87.3239 432.393,105.324 452.5,117.5C 452.973,118.906 453.973,119.573 455.5,119.5C 458.37,121.794 461.703,123.128 465.5,123.5C 467.515,124.924 469.848,125.59 472.5,125.5C 502.739,129.968 526.239,119.302 543,93.5C 548.575,83.6936 551.742,73.1936 552.5,62C 574.5,61.6667 596.5,61.3333 618.5,61C 623.352,60.2872 628.019,58.9538 632.5,57C 646.753,49.7349 660.753,42.0682 674.5,34C 679.961,33.863 685.294,34.6963 690.5,36.5C 691.93,37.5375 693.597,38.2041 695.5,38.5C 695.833,38.5 696.167,38.5 696.5,38.5C 697.93,39.5375 699.597,40.2041 701.5,40.5C 738.174,53.5021 774.84,66.5021 811.5,79.5C 813.41,94.2144 816.91,108.548 822,122.5C 857.308,194.45 887.641,268.45 913,344.5C 929.707,395.327 941.04,447.327 947,500.5C 949.845,530.018 948.679,559.352 943.5,588.5C 942.463,589.93 941.796,591.597 941.5,593.5C 936.702,608.241 930.369,622.241 922.5,635.5C 921.094,635.973 920.427,636.973 920.5,638.5C 917.195,642.141 913.862,645.808 910.5,649.5C 908.251,650.08 906.585,651.413 905.5,653.5C 903.973,653.427 902.973,654.094 902.5,655.5C 898.742,657.91 894.742,659.91 890.5,661.5C 889.5,661 888.5,660.5 887.5,660C 835.129,616.475 783.129,572.475 731.5,528C 716.784,516.473 700.451,507.806 682.5,502C 673.912,500.343 665.245,499.343 656.5,499C 627.669,498.369 598.836,497.869 570,497.5C 509.503,498.338 449.003,498.671 388.5,498.5C 361.165,498.333 333.831,498.5 306.5,499C 305.263,499.232 304.263,499.732 303.5,500.5C 292.162,504.114 281.162,508.614 270.5,514C 264.554,517.462 259.22,521.629 254.5,526.5C 252.251,527.08 250.585,528.413 249.5,530.5C 247.251,531.08 245.585,532.413 244.5,534.5C 241.891,535.443 239.891,537.11 238.5,539.5C 236.251,540.08 234.585,541.413 233.5,543.5C 232.833,543.5 232.5,543.833 232.5,544.5C 230.251,545.08 228.585,546.413 227.5,548.5C 226.833,548.5 226.5,548.833 226.5,549.5C 224.251,550.08 222.585,551.413 221.5,553.5C 220.833,553.5 220.5,553.833 220.5,554.5C 218.251,555.08 216.585,556.413 215.5,558.5C 214.833,558.5 214.5,558.833 214.5,559.5C 212.251,560.08 210.585,561.413 209.5,563.5C 208.833,563.5 208.5,563.833 208.5,564.5C 205.911,565.419 203.911,567.086 202.5,569.5C 201.833,569.5 201.5,569.833 201.5,570.5C 199.251,571.08 197.585,572.413 196.5,574.5C 195.833,574.5 195.5,574.833 195.5,575.5C 192.911,576.419 190.911,578.086 189.5,580.5C 186.553,581.781 184.219,583.781 182.5,586.5C 179.911,587.419 177.911,589.086 176.5,591.5C 175.833,591.5 175.5,591.833 175.5,592.5C 172.911,593.419 170.911,595.086 169.5,597.5C 166.553,598.781 164.219,600.781 162.5,603.5C 159.911,604.419 157.911,606.086 156.5,608.5C 155.833,608.5 155.5,608.833 155.5,609.5C 152.911,610.419 150.911,612.086 149.5,614.5C 148.833,614.5 148.5,614.833 148.5,615.5C 145.911,616.419 143.911,618.086 142.5,620.5C 141.833,620.5 141.5,620.833 141.5,621.5C 139.251,622.08 137.585,623.413 136.5,625.5C 135.833,625.5 135.5,625.833 135.5,626.5C 132.911,627.419 130.911,629.086 129.5,631.5C 126.911,632.419 124.911,634.086 123.5,636.5C 121.251,637.08 119.585,638.413 118.5,640.5C 115.891,641.443 113.891,643.11 112.5,645.5C 110.251,646.08 108.585,647.413 107.5,649.5C 102.091,653.722 96.2579,657.389 90,660.5C 85.6131,658.723 81.4464,656.557 77.5,654C 70.3024,647.968 63.6357,641.468 57.5,634.5C 57.573,632.973 56.9063,631.973 55.5,631.5C 55.573,629.973 54.9063,628.973 53.5,628.5C 53.573,626.973 52.9063,625.973 51.5,625.5C 46.8712,615.914 42.5379,606.247 38.5,596.5C 38.5905,593.848 37.9238,591.515 36.5,589.5C 30.227,561.465 28.3937,533.132 31,504.5C 36.4242,453.712 47.0909,404.046 63,355.5C 89.4776,275.402 121.811,197.735 160,122.5C 164.46,108.66 168.293,94.6605 171.5,80.5C 214.568,63.4208 258.068,47.4208 302,32.5C 321.293,40.7298 340.126,49.8965 358.5,60C 376.119,61.4297 393.786,61.9297 411.5,61.5 Z M 517.5,62.5 C 518.11,63.391 518.443,64.391 518.5,65.5C 516.703,71.7527 514.369,77.7527 511.5,83.5C 509.5,84.8333 507.833,86.5 506.5,88.5C 504.973,88.427 503.973,89.0937 503.5,90.5C 493.326,95.4167 482.992,95.7501 472.5,91.5C 471.71,90.5987 470.71,89.9321 469.5,89.5C 466.214,87.5488 463.214,85.2154 460.5,82.5C 460.573,80.9731 459.906,79.9731 458.5,79.5C 458.107,77.7162 457.441,76.0495 456.5,74.5C 456.204,72.597 455.537,70.9303 454.5,69.5C 454.083,66.9208 454.75,64.7542 456.5,63C 476.818,61.3603 497.151,61.1936 517.5,62.5 Z M 280.5,174.5 C 280.932,175.71 281.599,176.71 282.5,177.5C 290.71,194.986 290.377,212.319 281.5,229.5C 280.094,229.973 279.427,230.973 279.5,232.5C 278.5,232.833 277.833,233.5 277.5,234.5C 276.094,234.973 275.427,235.973 275.5,237.5C 273.251,238.08 271.585,239.413 270.5,241.5C 246.338,255.159 223.671,253.159 202.5,235.5C 202.262,233.596 201.262,232.262 199.5,231.5C 193.345,218.903 191.179,205.57 193,191.5C 197.127,171.373 209.293,159.207 229.5,155C 244.236,152.217 257.903,154.883 270.5,163C 274.416,166.41 277.749,170.243 280.5,174.5 Z M 358.5,278.5 C 368.833,278.5 379.167,278.5 389.5,278.5C 389.171,291.344 389.505,304.011 390.5,316.5C 390.225,323.305 391.058,329.972 393,336.5C 394.167,339 396,340.833 398.5,342C 417.463,343.406 436.463,343.906 455.5,343.5C 455.5,354.5 455.5,365.5 455.5,376.5C 437.463,376.1 419.463,376.6 401.5,378C 398.734,379.371 396.401,381.204 394.5,383.5C 393.094,383.973 392.427,384.973 392.5,386.5C 391.698,387.952 391.198,389.618 391,391.5C 390.241,408.494 389.741,425.494 389.5,442.5C 379.5,442.5 369.5,442.5 359.5,442.5C 358.983,424.151 358.15,405.817 357,387.5C 355.06,380.07 350.227,376.737 342.5,377.5C 326.342,376.504 310.009,376.17 293.5,376.5C 293.5,365.5 293.5,354.5 293.5,343.5C 311.17,343.667 328.836,343.5 346.5,343C 352.368,341.132 356.202,337.299 358,331.5C 358.5,313.836 358.667,296.17 358.5,278.5 Z M 642.5,323.5 C 642.973,324.906 643.973,325.573 645.5,325.5C 646.262,327.262 647.596,328.262 649.5,328.5C 663.056,342.026 667.89,358.36 664,377.5C 662.997,382.673 661.497,387.673 659.5,392.5C 658.094,392.973 657.427,393.973 657.5,395.5C 656.5,395.833 655.833,396.5 655.5,397.5C 654.094,397.973 653.427,398.973 653.5,400.5C 652.5,400.833 651.833,401.5 651.5,402.5C 649.596,402.738 648.262,403.738 647.5,405.5C 628.488,416.82 609.155,417.32 589.5,407C 585.666,403.998 582,400.831 578.5,397.5C 578.573,395.973 577.906,394.973 576.5,394.5C 569.871,383.066 567.704,370.733 570,357.5C 573.105,336.725 584.938,323.892 605.5,319C 618.338,316.525 630.671,318.025 642.5,323.5 Z"/></g>
<g><path style="opacity:1" fill="#747474" d="M 652.5,7.5 C 652.027,8.90632 651.027,9.57298 649.5,9.5C 649.973,8.09368 650.973,7.42702 652.5,7.5 Z"/></g>
<g><path style="opacity:1" fill="#8f8f8f" d="M 268.5,8.5 C 266.383,10.6545 263.716,11.6545 260.5,11.5C 262.936,10.129 265.603,9.12904 268.5,8.5 Z"/></g>
<g><path style="opacity:1" fill="#909090" d="M 237.5,19.5 C 235.383,21.6545 232.716,22.6545 229.5,22.5C 231.936,21.129 234.603,20.129 237.5,19.5 Z"/></g>
<g><path style="opacity:1" fill="#909090" d="M 204.5,31.5 C 202.383,33.6545 199.716,34.6545 196.5,34.5C 198.936,33.129 201.603,32.129 204.5,31.5 Z"/></g>
<g><path style="opacity:1" fill="#747474" d="M 690.5,36.5 C 692.698,36.1201 694.365,36.7868 695.5,38.5C 693.597,38.2041 691.93,37.5375 690.5,36.5 Z"/></g>
<g><path style="opacity:1" fill="#747474" d="M 696.5,38.5 C 698.698,38.1201 700.365,38.7868 701.5,40.5C 699.597,40.2041 697.93,39.5375 696.5,38.5 Z"/></g>
<g><path style="opacity:1" fill="#626262" d="M 149.5,56.5 C 149.573,58.0269 148.906,59.0269 147.5,59.5C 147.427,57.9731 148.094,56.9731 149.5,56.5 Z"/></g>
<g><path style="opacity:1" fill="#202020" d="M 411.5,61.5 C 414.698,60.9644 417.365,61.631 419.5,63.5C 416.72,62.9216 414.053,62.2549 411.5,61.5 Z"/></g>
<g><path style="opacity:1" fill="#555555" d="M 517.5,62.5 C 519.552,63.0527 519.885,64.0527 518.5,65.5C 518.443,64.391 518.11,63.391 517.5,62.5 Z"/></g>
<g><path style="opacity:1" fill="#727272" d="M 454.5,69.5 C 455.537,70.9303 456.204,72.597 456.5,74.5C 454.787,73.3646 454.12,71.698 454.5,69.5 Z"/></g>
<g><path style="opacity:1" fill="#757575" d="M 139.5,77.5 C 139.88,79.698 139.213,81.3646 137.5,82.5C 137.796,80.597 138.463,78.9303 139.5,77.5 Z"/></g>
<g><path style="opacity:1" fill="#6a6a6a" d="M 458.5,79.5 C 459.906,79.9731 460.573,80.9731 460.5,82.5C 459.094,82.0269 458.427,81.0269 458.5,79.5 Z"/></g>
<g><path style="opacity:1" fill="#959595" d="M 511.5,83.5 C 510.833,86.1667 509.167,87.8333 506.5,88.5C 507.833,86.5 509.5,84.8333 511.5,83.5 Z"/></g>
<g><path style="opacity:1" fill="#6f6f6f" d="M 506.5,88.5 C 506.027,89.9063 505.027,90.573 503.5,90.5C 503.973,89.0937 504.973,88.427 506.5,88.5 Z"/></g>
<g><path style="opacity:1" fill="#747474" d="M 469.5,89.5 C 470.71,89.9321 471.71,90.5987 472.5,91.5C 470.821,91.7148 469.821,91.0481 469.5,89.5 Z"/></g>
<g><path style="opacity:1" fill="#737373" d="M 847.5,92.5 C 848.537,93.9303 849.204,95.597 849.5,97.5C 847.787,96.3646 847.12,94.698 847.5,92.5 Z"/></g>
<g><path style="opacity:1" fill="#f6f6f6" d="M 755.5,113.5 C 755.427,115.027 756.094,116.027 757.5,116.5C 760.937,119.701 763.104,123.701 764,128.5C 766.899,150.41 757.732,164.077 736.5,169.5C 730.839,168.757 725.172,167.924 719.5,167C 715.819,166.128 712.819,164.294 710.5,161.5C 709.738,159.738 708.404,158.738 706.5,158.5C 700.089,149.174 697.923,138.841 700,127.5C 701.68,121.453 704.847,116.453 709.5,112.5C 710.906,112.027 711.573,111.027 711.5,109.5C 727.176,100.502 741.843,101.835 755.5,113.5 Z"/></g>
<g><path style="opacity:1" fill="#6f6f6f" d="M 711.5,109.5 C 711.573,111.027 710.906,112.027 709.5,112.5C 709.427,110.973 710.094,109.973 711.5,109.5 Z"/></g>
<g><path style="opacity:1" fill="#616161" d="M 755.5,113.5 C 756.906,113.973 757.573,114.973 757.5,116.5C 756.094,116.027 755.427,115.027 755.5,113.5 Z"/></g>
<g><path style="opacity:1" fill="#5d5d5d" d="M 452.5,117.5 C 454.027,117.427 455.027,118.094 455.5,119.5C 453.973,119.573 452.973,118.906 452.5,117.5 Z"/></g>
<g><path style="opacity:1" fill="#f6f6f6" d="M 278.5,130.5 C 278.821,132.048 279.821,132.715 281.5,132.5C 287.438,136.106 292.771,140.439 297.5,145.5C 297.427,147.027 298.094,148.027 299.5,148.5C 300.833,149.167 301.833,150.167 302.5,151.5C 302.427,153.027 303.094,154.027 304.5,154.5C 328.235,187.089 328.068,219.755 304,252.5C 274.205,285.526 239.372,292.359 199.5,273C 196.58,271.054 193.913,268.887 191.5,266.5C 191.027,265.094 190.027,264.427 188.5,264.5C 183.127,260.129 178.461,255.129 174.5,249.5C 174.446,247.368 173.446,246.035 171.5,245.5C 171.715,243.821 171.048,242.821 169.5,242.5C 154.039,215.696 154.039,189.029 169.5,162.5C 170.906,162.027 171.573,161.027 171.5,159.5C 172.072,157.745 172.906,156.078 174,154.5C 176.387,151.043 179.22,148.043 182.5,145.5C 185.427,144.243 187.761,142.243 189.5,139.5C 190.579,137.457 192.246,136.124 194.5,135.5C 196.027,135.573 197.027,134.906 197.5,133.5C 209.868,124.879 223.701,120.546 239,120.5C 253.069,120.478 266.236,123.811 278.5,130.5 Z M 280.5,174.5 C 280.932,175.71 281.599,176.71 282.5,177.5C 290.71,194.986 290.377,212.319 281.5,229.5C 280.094,229.973 279.427,230.973 279.5,232.5C 278.5,232.833 277.833,233.5 277.5,234.5C 276.094,234.973 275.427,235.973 275.5,237.5C 273.251,238.08 271.585,239.413 270.5,241.5C 246.338,255.159 223.671,253.159 202.5,235.5C 202.262,233.596 201.262,232.262 199.5,231.5C 193.345,218.903 191.179,205.57 193,191.5C 197.127,171.373 209.293,159.207 229.5,155C 244.236,152.217 257.903,154.883 270.5,163C 274.416,166.41 277.749,170.243 280.5,174.5 Z"/></g>
<g><path style="opacity:1" fill="#999999" d="M 465.5,123.5 C 468.152,123.41 470.485,124.076 472.5,125.5C 469.848,125.59 467.515,124.924 465.5,123.5 Z"/></g>
<g><path style="opacity:1" fill="#747474" d="M 278.5,130.5 C 279.71,130.932 280.71,131.599 281.5,132.5C 279.821,132.715 278.821,132.048 278.5,130.5 Z"/></g>
<g><path style="opacity:1" fill="#747474" d="M 197.5,133.5 C 197.027,134.906 196.027,135.573 194.5,135.5C 194.973,134.094 195.973,133.427 197.5,133.5 Z"/></g>
<g><path style="opacity:1" fill="#888888" d="M 189.5,139.5 C 187.761,142.243 185.427,144.243 182.5,145.5C 184.239,142.757 186.573,140.757 189.5,139.5 Z"/></g>
<g><path style="opacity:1" fill="#5c5c5c" d="M 297.5,145.5 C 298.906,145.973 299.573,146.973 299.5,148.5C 298.094,148.027 297.427,147.027 297.5,145.5 Z"/></g>
<g><path style="opacity:1" fill="#606060" d="M 302.5,151.5 C 303.906,151.973 304.573,152.973 304.5,154.5C 303.094,154.027 302.427,153.027 302.5,151.5 Z"/></g>
<g><path style="opacity:1" fill="#595959" d="M 706.5,158.5 C 708.404,158.738 709.738,159.738 710.5,161.5C 708.596,161.262 707.262,160.262 706.5,158.5 Z"/></g>
<g><path style="opacity:1" fill="#696969" d="M 171.5,159.5 C 171.573,161.027 170.906,162.027 169.5,162.5C 169.427,160.973 170.094,159.973 171.5,159.5 Z"/></g>
<g><path style="opacity:1" fill="#f6f6f6" d="M 769.5,185.5 C 770.906,185.027 771.573,184.027 771.5,182.5C 771.738,180.596 772.738,179.262 774.5,178.5C 776.404,178.262 777.738,177.262 778.5,175.5C 794.775,165.178 809.609,167.178 823,181.5C 833.388,196.924 832.721,211.924 821,226.5C 810.339,234.466 798.506,236.633 785.5,233C 768.938,225.06 762.438,211.893 766,193.5C 766.705,190.524 767.871,187.858 769.5,185.5 Z"/></g>
<g><path style="opacity:1" fill="#f6f6f6" d="M 689.5,178.5 C 689.427,180.027 690.094,181.027 691.5,181.5C 701.187,193.752 702.02,206.752 694,220.5C 685.142,232.842 673.308,237.175 658.5,233.5C 656.485,232.076 654.152,231.41 651.5,231.5C 650.508,231.672 649.842,231.338 649.5,230.5C 649.027,229.094 648.027,228.427 646.5,228.5C 639.935,224.397 636.101,218.397 635,210.5C 634.333,204.167 634.333,197.833 635,191.5C 636.086,187.654 637.919,184.32 640.5,181.5C 642.167,180.5 643.5,179.167 644.5,177.5C 644.5,176.833 644.833,176.5 645.5,176.5C 647.027,176.573 648.027,175.906 648.5,174.5C 659.445,168.406 670.778,167.906 682.5,173C 685.02,174.697 687.353,176.53 689.5,178.5 Z"/></g>
<g><path style="opacity:1" fill="#666666" d="M 280.5,174.5 C 282.048,174.821 282.715,175.821 282.5,177.5C 281.599,176.71 280.932,175.71 280.5,174.5 Z"/></g>
<g><path style="opacity:1" fill="#6f6f6f" d="M 648.5,174.5 C 648.027,175.906 647.027,176.573 645.5,176.5C 645.973,175.094 646.973,174.427 648.5,174.5 Z"/></g>
<g><path style="opacity:1" fill="#6c6c6c" d="M 778.5,175.5 C 777.738,177.262 776.404,178.262 774.5,178.5C 775.262,176.738 776.596,175.738 778.5,175.5 Z"/></g>
<g><path style="opacity:1" fill="#636363" d="M 644.5,177.5 C 643.5,179.167 642.167,180.5 640.5,181.5C 640.833,179.167 642.167,177.833 644.5,177.5 Z"/></g>
<g><path style="opacity:1" fill="#686868" d="M 689.5,178.5 C 690.906,178.973 691.573,179.973 691.5,181.5C 690.094,181.027 689.427,180.027 689.5,178.5 Z"/></g>
<g><path style="opacity:1" fill="#6d6d6d" d="M 771.5,182.5 C 771.573,184.027 770.906,185.027 769.5,185.5C 769.427,183.973 770.094,182.973 771.5,182.5 Z"/></g>
<g><path style="opacity:1" fill="#5f5f5f" d="M 646.5,228.5 C 648.027,228.427 649.027,229.094 649.5,230.5C 647.973,230.573 646.973,229.906 646.5,228.5 Z"/></g>
<g><path style="opacity:1" fill="#5a5a5a" d="M 281.5,229.5 C 281.573,231.027 280.906,232.027 279.5,232.5C 279.427,230.973 280.094,229.973 281.5,229.5 Z"/></g>
<g><path style="opacity:1" fill="#828282" d="M 651.5,231.5 C 654.152,231.41 656.485,232.076 658.5,233.5C 655.848,233.59 653.515,232.924 651.5,231.5 Z"/></g>
<g><path style="opacity:1" fill="#747474" d="M 199.5,231.5 C 201.262,232.262 202.262,233.596 202.5,235.5C 200.738,234.738 199.738,233.404 199.5,231.5 Z"/></g>
<g><path style="opacity:1" fill="#585858" d="M 277.5,234.5 C 277.573,236.027 276.906,237.027 275.5,237.5C 275.427,235.973 276.094,234.973 277.5,234.5 Z"/></g>
<g><path style="opacity:1" fill="#f7f7f7" d="M 762.5,256.5 C 763.32,262.797 763.653,269.131 763.5,275.5C 760.944,287.226 753.944,295.06 742.5,299C 733.674,300.08 725.007,299.413 716.5,297C 714.253,295.723 712.253,294.223 710.5,292.5C 709.738,290.738 708.404,289.738 706.5,289.5C 699.543,279.074 697.709,267.74 701,255.5C 701.941,253.273 703.108,251.273 704.5,249.5C 705.906,249.027 706.573,248.027 706.5,246.5C 709.953,242.27 714.287,239.27 719.5,237.5C 722.152,237.59 724.485,236.924 726.5,235.5C 743.8,233.157 755.8,240.157 762.5,256.5 Z"/></g>
<g><path style="opacity:1" fill="#8d8d8d" d="M 726.5,235.5 C 724.485,236.924 722.152,237.59 719.5,237.5C 721.515,236.076 723.848,235.41 726.5,235.5 Z"/></g>
<g><path style="opacity:1" fill="#7c7c7c" d="M 275.5,237.5 C 274.415,239.587 272.749,240.92 270.5,241.5C 271.585,239.413 273.251,238.08 275.5,237.5 Z"/></g>
<g><path style="opacity:1" fill="#737373" d="M 169.5,242.5 C 171.048,242.821 171.715,243.821 171.5,245.5C 170.599,244.71 169.932,243.71 169.5,242.5 Z"/></g>
<g><path style="opacity:1" fill="#707070" d="M 171.5,245.5 C 173.446,246.035 174.446,247.368 174.5,249.5C 173.026,248.564 172.026,247.23 171.5,245.5 Z"/></g>
<g><path style="opacity:1" fill="#fafafa" d="M 417.5,258.5 C 417.427,260.027 418.094,261.027 419.5,261.5C 420.674,262.514 421.34,263.847 421.5,265.5C 421.41,268.152 422.076,270.485 423.5,272.5C 423.5,273.5 423.5,274.5 423.5,275.5C 423.5,287.5 423.5,299.5 423.5,311.5C 426.5,311.5 429.5,311.5 432.5,311.5C 444.872,311.185 457.205,311.685 469.5,313C 475.206,315.537 479.873,319.37 483.5,324.5C 483.427,326.027 484.094,327.027 485.5,327.5C 487.531,330.422 488.698,333.755 489,337.5C 489.91,354.539 489.577,371.539 488,388.5C 484.133,400.542 475.966,407.209 463.5,408.5C 450.167,408.5 436.833,408.5 423.5,408.5C 423.5,420.167 423.5,431.833 423.5,443.5C 424.254,457.499 418.254,467.332 405.5,473C 394.555,474.12 383.555,474.62 372.5,474.5C 362.833,474.333 353.167,474.167 343.5,474C 342.944,473.617 342.611,473.117 342.5,472.5C 341.738,470.738 340.404,469.738 338.5,469.5C 332.11,465.057 327.944,459.057 326,451.5C 324.591,437.551 324.091,423.551 324.5,409.5C 309.163,409.667 293.83,409.5 278.5,409C 277.944,408.617 277.611,408.117 277.5,407.5C 277.027,406.094 276.027,405.427 274.5,405.5C 266.42,400.349 261.587,393.016 260,383.5C 258.448,367.804 258.614,352.137 260.5,336.5C 261.924,334.485 262.59,332.152 262.5,329.5C 262.5,329.167 262.5,328.833 262.5,328.5C 263.906,328.027 264.573,327.027 264.5,325.5C 264.738,323.596 265.738,322.262 267.5,321.5C 269.404,321.262 270.738,320.262 271.5,318.5C 274.65,314.925 278.65,312.925 283.5,312.5C 297.167,312.5 310.833,312.5 324.5,312.5C 324.5,309.5 324.5,306.5 324.5,303.5C 324.207,292.127 324.707,280.794 326,269.5C 326.462,265.578 327.962,262.245 330.5,259.5C 331.906,259.027 332.573,258.027 332.5,256.5C 333.579,254.457 335.246,253.124 337.5,252.5C 339.027,252.573 340.027,251.906 340.5,250.5C 343.828,247.553 347.828,246.053 352.5,246C 370.502,245.8 388.502,246.133 406.5,247C 410.37,250.702 414.037,254.536 417.5,258.5 Z M 358.5,278.5 C 368.833,278.5 379.167,278.5 389.5,278.5C 389.171,291.344 389.505,304.011 390.5,316.5C 390.225,323.305 391.058,329.972 393,336.5C 394.167,339 396,340.833 398.5,342C 417.463,343.406 436.463,343.906 455.5,343.5C 455.5,354.5 455.5,365.5 455.5,376.5C 437.463,376.1 419.463,376.6 401.5,378C 398.734,379.371 396.401,381.204 394.5,383.5C 393.094,383.973 392.427,384.973 392.5,386.5C 391.698,387.952 391.198,389.618 391,391.5C 390.241,408.494 389.741,425.494 389.5,442.5C 379.5,442.5 369.5,442.5 359.5,442.5C 358.983,424.151 358.15,405.817 357,387.5C 355.06,380.07 350.227,376.737 342.5,377.5C 326.342,376.504 310.009,376.17 293.5,376.5C 293.5,365.5 293.5,354.5 293.5,343.5C 311.17,343.667 328.836,343.5 346.5,343C 352.368,341.132 356.202,337.299 358,331.5C 358.5,313.836 358.667,296.17 358.5,278.5 Z"/></g>
<g><path style="opacity:1" fill="#545454" d="M 706.5,246.5 C 706.573,248.027 705.906,249.027 704.5,249.5C 704.427,247.973 705.094,246.973 706.5,246.5 Z"/></g>
<g><path style="opacity:1" fill="#707070" d="M 340.5,250.5 C 340.027,251.906 339.027,252.573 337.5,252.5C 337.973,251.094 338.973,250.427 340.5,250.5 Z"/></g>
<g><path style="opacity:1" fill="#707070" d="M 332.5,256.5 C 332.573,258.027 331.906,259.027 330.5,259.5C 330.427,257.973 331.094,256.973 332.5,256.5 Z"/></g>
<g><path style="opacity:1" fill="#686868" d="M 417.5,258.5 C 418.906,258.973 419.573,259.973 419.5,261.5C 418.094,261.027 417.427,260.027 417.5,258.5 Z"/></g>
<g><path style="opacity:1" fill="#707070" d="M 188.5,264.5 C 190.027,264.427 191.027,265.094 191.5,266.5C 189.973,266.573 188.973,265.906 188.5,264.5 Z"/></g>
<g><path style="opacity:1" fill="#989898" d="M 762.5,256.5 C 764.039,259.865 764.706,263.531 764.5,267.5C 764.497,270.355 764.164,273.022 763.5,275.5C 763.653,269.131 763.32,262.797 762.5,256.5 Z"/></g>
<g><path style="opacity:1" fill="#696969" d="M 421.5,265.5 C 422.924,267.515 423.59,269.848 423.5,272.5C 422.076,270.485 421.41,268.152 421.5,265.5 Z"/></g>
<g><path style="opacity:1" fill="#4e4e4e" d="M 358.5,278.5 C 368.987,277.506 379.654,277.172 390.5,277.5C 390.5,290.5 390.5,303.5 390.5,316.5C 389.505,304.011 389.171,291.344 389.5,278.5C 379.167,278.5 368.833,278.5 358.5,278.5 Z"/></g>
<g><path style="opacity:1" fill="#f6f6f6" d="M 677.5,312.5 C 677.427,314.027 678.094,315.027 679.5,315.5C 680.5,315.833 681.167,316.5 681.5,317.5C 681.427,319.027 682.094,320.027 683.5,320.5C 683.427,322.027 684.094,323.027 685.5,323.5C 685.427,325.027 686.094,326.027 687.5,326.5C 690.616,331.07 692.95,336.07 694.5,341.5C 694.41,344.152 695.076,346.485 696.5,348.5C 702.765,383.176 691.765,411.343 663.5,433C 644.998,446.546 624.665,451.046 602.5,446.5C 600.485,445.076 598.152,444.41 595.5,444.5C 588.97,442.899 582.97,440.233 577.5,436.5C 577.027,435.094 576.027,434.427 574.5,434.5C 574.027,433.094 573.027,432.427 571.5,432.5C 571.027,431.094 570.027,430.427 568.5,430.5C 539.719,408.228 529.553,379.228 538,343.5C 540.003,338.16 542.503,333.16 545.5,328.5C 546.906,328.027 547.573,327.027 547.5,325.5C 548.906,325.027 549.573,324.027 549.5,322.5C 549.738,320.596 550.738,319.262 552.5,318.5C 553.906,318.027 554.573,317.027 554.5,315.5C 555.167,314.167 556.167,313.167 557.5,312.5C 559.833,310.833 561.833,308.833 563.5,306.5C 563.5,305.833 563.833,305.5 564.5,305.5C 567.089,304.581 569.089,302.914 570.5,300.5C 576.896,294.965 584.229,290.965 592.5,288.5C 595.152,288.59 597.485,287.924 599.5,286.5C 630.281,280.538 656.281,289.205 677.5,312.5 Z M 642.5,323.5 C 642.973,324.906 643.973,325.573 645.5,325.5C 646.262,327.262 647.596,328.262 649.5,328.5C 663.056,342.026 667.89,358.36 664,377.5C 662.997,382.673 661.497,387.673 659.5,392.5C 658.094,392.973 657.427,393.973 657.5,395.5C 656.5,395.833 655.833,396.5 655.5,397.5C 654.094,397.973 653.427,398.973 653.5,400.5C 652.5,400.833 651.833,401.5 651.5,402.5C 649.596,402.738 648.262,403.738 647.5,405.5C 628.488,416.82 609.155,417.32 589.5,407C 585.666,403.998 582,400.831 578.5,397.5C 578.573,395.973 577.906,394.973 576.5,394.5C 569.871,383.066 567.704,370.733 570,357.5C 573.105,336.725 584.938,323.892 605.5,319C 618.338,316.525 630.671,318.025 642.5,323.5 Z"/></g>
<g><path style="opacity:1" fill="#8a8a8a" d="M 599.5,286.5 C 597.485,287.924 595.152,288.59 592.5,288.5C 594.515,287.076 596.848,286.41 599.5,286.5 Z"/></g>
<g><path style="opacity:1" fill="#525252" d="M 706.5,289.5 C 708.404,289.738 709.738,290.738 710.5,292.5C 708.596,292.262 707.262,291.262 706.5,289.5 Z"/></g>
<g><path style="opacity:1" fill="#5c5c5c" d="M 423.5,275.5 C 424.495,286.988 424.828,298.655 424.5,310.5C 427.385,310.194 430.052,310.527 432.5,311.5C 429.5,311.5 426.5,311.5 423.5,311.5C 423.5,299.5 423.5,287.5 423.5,275.5 Z"/></g>
<g><path style="opacity:1" fill="#989898" d="M 570.5,300.5 C 569.089,302.914 567.089,304.581 564.5,305.5C 565.911,303.086 567.911,301.419 570.5,300.5 Z"/></g>
<g><path style="opacity:1" fill="#5d5d5d" d="M 563.5,306.5 C 561.833,308.833 559.833,310.833 557.5,312.5C 558.5,309.5 560.5,307.5 563.5,306.5 Z"/></g>
<g><path style="opacity:1" fill="#b1b1b1" d="M 324.5,303.5 C 324.5,306.5 324.5,309.5 324.5,312.5C 310.833,312.5 297.167,312.5 283.5,312.5C 296.656,311.504 309.99,311.171 323.5,311.5C 323.194,308.615 323.527,305.948 324.5,303.5 Z"/></g>
<g><path style="opacity:1" fill="#737373" d="M 935.5,308.5 C 936.537,309.93 937.204,311.597 937.5,313.5C 935.787,312.365 935.12,310.698 935.5,308.5 Z"/></g>
<g><path style="opacity:1" fill="#5e5e5e" d="M 677.5,312.5 C 678.906,312.973 679.573,313.973 679.5,315.5C 678.094,315.027 677.427,314.027 677.5,312.5 Z"/></g>
<g><path style="opacity:1" fill="#717171" d="M 554.5,315.5 C 554.573,317.027 553.906,318.027 552.5,318.5C 552.427,316.973 553.094,315.973 554.5,315.5 Z"/></g>
<g><path style="opacity:1" fill="#717171" d="M 937.5,314.5 C 938.537,315.93 939.204,317.597 939.5,319.5C 937.787,318.365 937.12,316.698 937.5,314.5 Z"/></g>
<g><path style="opacity:1" fill="#646464" d="M 681.5,317.5 C 682.906,317.973 683.573,318.973 683.5,320.5C 682.094,320.027 681.427,319.027 681.5,317.5 Z"/></g>
<g><path style="opacity:1" fill="#767676" d="M 271.5,318.5 C 270.738,320.262 269.404,321.262 267.5,321.5C 268.262,319.738 269.596,318.738 271.5,318.5 Z"/></g>
<g><path style="opacity:1" fill="#727272" d="M 683.5,320.5 C 684.906,320.973 685.573,321.973 685.5,323.5C 684.094,323.027 683.427,322.027 683.5,320.5 Z"/></g>
<g><path style="opacity:1" fill="#757575" d="M 549.5,322.5 C 549.573,324.027 548.906,325.027 547.5,325.5C 547.427,323.973 548.094,322.973 549.5,322.5 Z"/></g>
<g><path style="opacity:1" fill="#656565" d="M 642.5,323.5 C 644.027,323.427 645.027,324.094 645.5,325.5C 643.973,325.573 642.973,324.906 642.5,323.5 Z"/></g>
<g><path style="opacity:1" fill="#727272" d="M 645.5,325.5 C 647.404,325.738 648.738,326.738 649.5,328.5C 647.596,328.262 646.262,327.262 645.5,325.5 Z"/></g>
<g><path style="opacity:1" fill="#6b6b6b" d="M 685.5,323.5 C 686.906,323.973 687.573,324.973 687.5,326.5C 686.094,326.027 685.427,325.027 685.5,323.5 Z"/></g>
<g><path style="opacity:1" fill="#5c5c5c" d="M 483.5,324.5 C 484.906,324.973 485.573,325.973 485.5,327.5C 484.094,327.027 483.427,326.027 483.5,324.5 Z"/></g>
<g><path style="opacity:1" fill="#4e4e4e" d="M 264.5,325.5 C 264.573,327.027 263.906,328.027 262.5,328.5C 262.427,326.973 263.094,325.973 264.5,325.5 Z"/></g>
<g><path style="opacity:1" fill="#5c5c5c" d="M 547.5,325.5 C 547.573,327.027 546.906,328.027 545.5,328.5C 545.427,326.973 546.094,325.973 547.5,325.5 Z"/></g>
<g><path style="opacity:1" fill="#7f7f7f" d="M 262.5,329.5 C 262.59,332.152 261.924,334.485 260.5,336.5C 260.41,333.848 261.076,331.515 262.5,329.5 Z"/></g>
<g><path style="opacity:1" fill="#737373" d="M 35.5,335.5 C 35.8799,337.698 35.2132,339.365 33.5,340.5C 33.7959,338.597 34.4625,336.93 35.5,335.5 Z"/></g>
<g><path style="opacity:1" fill="#838383" d="M 694.5,341.5 C 695.924,343.515 696.59,345.848 696.5,348.5C 695.076,346.485 694.41,344.152 694.5,341.5 Z"/></g>
<g><path style="opacity:1" fill="#8f8f8f" d="M 32.5,345.5 C 32.5905,348.152 31.9238,350.485 30.5,352.5C 30.4095,349.848 31.0762,347.515 32.5,345.5 Z"/></g>
<g><path style="opacity:1" fill="#848484" d="M 27.5,362.5 C 27.5905,365.152 26.9238,367.485 25.5,369.5C 25.4095,366.848 26.0762,364.515 27.5,362.5 Z"/></g>
<g><path style="opacity:1" fill="#979797" d="M 952.5,364.5 C 953.924,366.515 954.59,368.848 954.5,371.5C 953.076,369.485 952.41,367.152 952.5,364.5 Z"/></g>
<g><path style="opacity:1" fill="#636363" d="M 293.5,343.5 C 293.5,354.5 293.5,365.5 293.5,376.5C 310.009,376.17 326.342,376.504 342.5,377.5C 325.833,377.5 309.167,377.5 292.5,377.5C 292.172,365.988 292.505,354.654 293.5,343.5 Z"/></g>
<g><path style="opacity:1" fill="#888888" d="M 954.5,371.5 C 955.924,373.515 956.59,375.848 956.5,378.5C 955.076,376.485 954.41,374.152 954.5,371.5 Z"/></g>
<g><path style="opacity:1" fill="#828282" d="M 24.5,373.5 C 24.5905,376.152 23.9238,378.485 22.5,380.5C 22.4095,377.848 23.0762,375.515 24.5,373.5 Z"/></g>
<g><path style="opacity:1" fill="#636363" d="M 394.5,383.5 C 394.573,385.027 393.906,386.027 392.5,386.5C 392.427,384.973 393.094,383.973 394.5,383.5 Z"/></g>
<g><path style="opacity:1" fill="#7d7d7d" d="M 958.5,386.5 C 959.924,388.515 960.59,390.848 960.5,393.5C 959.076,391.485 958.41,389.152 958.5,386.5 Z"/></g>
<g><path style="opacity:1" fill="#707070" d="M 659.5,392.5 C 659.573,394.027 658.906,395.027 657.5,395.5C 657.427,393.973 658.094,392.973 659.5,392.5 Z"/></g>
<g><path style="opacity:1" fill="#616161" d="M 576.5,394.5 C 577.906,394.973 578.573,395.973 578.5,397.5C 577.094,397.027 576.427,396.027 576.5,394.5 Z"/></g>
<g><path style="opacity:1" fill="#565656" d="M 655.5,397.5 C 655.573,399.027 654.906,400.027 653.5,400.5C 653.427,398.973 654.094,397.973 655.5,397.5 Z"/></g>
<g><path style="opacity:1" fill="#707070" d="M 651.5,402.5 C 650.738,404.262 649.404,405.262 647.5,405.5C 648.262,403.738 649.596,402.738 651.5,402.5 Z"/></g>
<g><path style="opacity:1" fill="#5d5d5d" d="M 274.5,405.5 C 276.027,405.427 277.027,406.094 277.5,407.5C 275.973,407.573 274.973,406.906 274.5,405.5 Z"/></g>
<g><path style="opacity:1" fill="#5f5f5f" d="M 463.5,408.5 C 450.677,409.495 437.677,409.829 424.5,409.5C 424.828,421.012 424.495,432.346 423.5,443.5C 423.5,431.833 423.5,420.167 423.5,408.5C 436.833,408.5 450.167,408.5 463.5,408.5 Z"/></g>
<g><path style="opacity:1" fill="#5b5b5b" d="M 568.5,430.5 C 570.027,430.427 571.027,431.094 571.5,432.5C 569.973,432.573 568.973,431.906 568.5,430.5 Z"/></g>
<g><path style="opacity:1" fill="#686868" d="M 571.5,432.5 C 573.027,432.427 574.027,433.094 574.5,434.5C 572.973,434.573 571.973,433.906 571.5,432.5 Z"/></g>
<g><path style="opacity:1" fill="#646464" d="M 574.5,434.5 C 576.027,434.427 577.027,435.094 577.5,436.5C 575.973,436.573 574.973,435.906 574.5,434.5 Z"/></g>
<g><path style="opacity:1" fill="#8d8d8d" d="M 595.5,444.5 C 598.152,444.41 600.485,445.076 602.5,446.5C 599.848,446.59 597.515,445.924 595.5,444.5 Z"/></g>
<g><path style="opacity:1" fill="#616161" d="M 338.5,469.5 C 340.404,469.738 341.738,470.738 342.5,472.5C 340.596,472.262 339.262,471.262 338.5,469.5 Z"/></g>
<g><path style="opacity:1" fill="#777777" d="M 388.5,498.5 C 360.313,499.199 331.98,499.866 303.5,500.5C 304.263,499.732 305.263,499.232 306.5,499C 333.831,498.5 361.165,498.333 388.5,498.5 Z"/></g>
<g><path style="opacity:1" fill="#969696" d="M 254.5,526.5 C 253.415,528.587 251.749,529.92 249.5,530.5C 250.585,528.413 252.251,527.08 254.5,526.5 Z"/></g>
<g><path style="opacity:1" fill="#8d8d8d" d="M 249.5,530.5 C 248.415,532.587 246.749,533.92 244.5,534.5C 245.585,532.413 247.251,531.08 249.5,530.5 Z"/></g>
<g><path style="opacity:1" fill="#929292" d="M 238.5,539.5 C 237.415,541.587 235.749,542.92 233.5,543.5C 234.585,541.413 236.251,540.08 238.5,539.5 Z"/></g>
<g><path style="opacity:1" fill="#929292" d="M 232.5,544.5 C 231.415,546.587 229.749,547.92 227.5,548.5C 228.585,546.413 230.251,545.08 232.5,544.5 Z"/></g>
<g><path style="opacity:1" fill="#5e5e5e" d="M 701.5,548.5 C 703.027,548.427 704.027,549.094 704.5,550.5C 702.973,550.573 701.973,549.906 701.5,548.5 Z"/></g>
<g><path style="opacity:1" fill="#919191" d="M 226.5,549.5 C 225.415,551.587 223.749,552.92 221.5,553.5C 222.585,551.413 224.251,550.08 226.5,549.5 Z"/></g>
<g><path style="opacity:1" fill="#616161" d="M 706.5,552.5 C 708.027,552.427 709.027,553.094 709.5,554.5C 707.973,554.573 706.973,553.906 706.5,552.5 Z"/></g>
<g><path style="opacity:1" fill="#686868" d="M 711.5,556.5 C 713.027,556.427 714.027,557.094 714.5,558.5C 712.973,558.573 711.973,557.906 711.5,556.5 Z"/></g>
<g><path style="opacity:1" fill="#929292" d="M 220.5,554.5 C 219.415,556.587 217.749,557.92 215.5,558.5C 216.585,556.413 218.251,555.08 220.5,554.5 Z"/></g>
<g><path style="opacity:1" fill="#707070" d="M 716.5,560.5 C 718.027,560.427 719.027,561.094 719.5,562.5C 717.973,562.573 716.973,561.906 716.5,560.5 Z"/></g>
<g><path style="opacity:1" fill="#909090" d="M 214.5,559.5 C 213.415,561.587 211.749,562.92 209.5,563.5C 210.585,561.413 212.251,560.08 214.5,559.5 Z"/></g>
<g><path style="opacity:1" fill="#5d5d5d" d="M 722.5,565.5 C 724.027,565.427 725.027,566.094 725.5,567.5C 723.973,567.573 722.973,566.906 722.5,565.5 Z"/></g>
<g><path style="opacity:1" fill="#959595" d="M 208.5,564.5 C 207.089,566.914 205.089,568.581 202.5,569.5C 203.911,567.086 205.911,565.419 208.5,564.5 Z"/></g>
<g><path style="opacity:1" fill="#666666" d="M 727.5,569.5 C 729.404,569.738 730.738,570.738 731.5,572.5C 729.596,572.262 728.262,571.262 727.5,569.5 Z"/></g>
<g><path style="opacity:1" fill="#979797" d="M 201.5,570.5 C 200.415,572.587 198.749,573.92 196.5,574.5C 197.585,572.413 199.251,571.08 201.5,570.5 Z"/></g>
<g><path style="opacity:1" fill="#676767" d="M 733.5,574.5 C 735.404,574.738 736.738,575.738 737.5,577.5C 735.596,577.262 734.262,576.262 733.5,574.5 Z"/></g>
<g><path style="opacity:1" fill="#929292" d="M 195.5,575.5 C 194.089,577.914 192.089,579.581 189.5,580.5C 190.911,578.086 192.911,576.419 195.5,575.5 Z"/></g>
<g><path style="opacity:1" fill="#666666" d="M 739.5,579.5 C 741.404,579.738 742.738,580.738 743.5,582.5C 741.596,582.262 740.262,581.262 739.5,579.5 Z"/></g>
<g><path style="opacity:1" fill="#656565" d="M 745.5,584.5 C 747.404,584.738 748.738,585.738 749.5,587.5C 747.596,587.262 746.262,586.262 745.5,584.5 Z"/></g>
<g><path style="opacity:1" fill="#909090" d="M 182.5,586.5 C 181.089,588.914 179.089,590.581 176.5,591.5C 177.911,589.086 179.911,587.419 182.5,586.5 Z"/></g>
<g><path style="opacity:1" fill="#717171" d="M 943.5,588.5 C 943.88,590.698 943.213,592.365 941.5,593.5C 941.796,591.597 942.463,589.93 943.5,588.5 Z"/></g>
<g><path style="opacity:1" fill="#828282" d="M 36.5,589.5 C 37.9238,591.515 38.5905,593.848 38.5,596.5C 37.0762,594.485 36.4095,592.152 36.5,589.5 Z"/></g>
<g><path style="opacity:1" fill="#999999" d="M 175.5,592.5 C 174.089,594.914 172.089,596.581 169.5,597.5C 170.911,595.086 172.911,593.419 175.5,592.5 Z"/></g>
<g><path style="opacity:1" fill="#636363" d="M 758.5,595.5 C 760.404,595.738 761.738,596.738 762.5,598.5C 760.596,598.262 759.262,597.262 758.5,595.5 Z"/></g>
<g><path style="opacity:1" fill="#8c8c8c" d="M 162.5,603.5 C 161.089,605.914 159.089,607.581 156.5,608.5C 157.911,606.086 159.911,604.419 162.5,603.5 Z"/></g>
<g><path style="opacity:1" fill="#696969" d="M 771.5,606.5 C 773.404,606.738 774.738,607.738 775.5,609.5C 773.596,609.262 772.262,608.262 771.5,606.5 Z"/></g>
<g><path style="opacity:1" fill="#929292" d="M 155.5,609.5 C 154.089,611.914 152.089,613.581 149.5,614.5C 150.911,612.086 152.911,610.419 155.5,609.5 Z"/></g>
<g><path style="opacity:1" fill="#626262" d="M 778.5,612.5 C 780.404,612.738 781.738,613.738 782.5,615.5C 780.596,615.262 779.262,614.262 778.5,612.5 Z"/></g>
<g><path style="opacity:1" fill="#989898" d="M 148.5,615.5 C 147.089,617.914 145.089,619.581 142.5,620.5C 143.911,618.086 145.911,616.419 148.5,615.5 Z"/></g>
<g><path style="opacity:1" fill="#585858" d="M 786.5,619.5 C 788.027,619.427 789.027,620.094 789.5,621.5C 787.973,621.573 786.973,620.906 786.5,619.5 Z"/></g>
<g><path style="opacity:1" fill="#989898" d="M 141.5,621.5 C 140.415,623.587 138.749,624.92 136.5,625.5C 137.585,623.413 139.251,622.08 141.5,621.5 Z"/></g>
<g><path style="opacity:1" fill="#6b6b6b" d="M 51.5,625.5 C 52.9063,625.973 53.573,626.973 53.5,628.5C 52.0937,628.027 51.427,627.027 51.5,625.5 Z"/></g>
<g><path style="opacity:1" fill="#989898" d="M 135.5,626.5 C 134.089,628.914 132.089,630.581 129.5,631.5C 130.911,629.086 132.911,627.419 135.5,626.5 Z"/></g>
<g><path style="opacity:1" fill="#5a5a5a" d="M 53.5,628.5 C 54.9063,628.973 55.573,629.973 55.5,631.5C 54.0937,631.027 53.427,630.027 53.5,628.5 Z"/></g>
<g><path style="opacity:1" fill="#636363" d="M 55.5,631.5 C 56.9063,631.973 57.573,632.973 57.5,634.5C 56.0937,634.027 55.427,633.027 55.5,631.5 Z"/></g>
<g><path style="opacity:1" fill="#959595" d="M 129.5,631.5 C 128.089,633.914 126.089,635.581 123.5,636.5C 124.911,634.086 126.911,632.419 129.5,631.5 Z"/></g>
<g><path style="opacity:1" fill="#757575" d="M 922.5,635.5 C 922.573,637.027 921.906,638.027 920.5,638.5C 920.427,636.973 921.094,635.973 922.5,635.5 Z"/></g>
<g><path style="opacity:1" fill="#939393" d="M 123.5,636.5 C 122.415,638.587 120.749,639.92 118.5,640.5C 119.585,638.413 121.251,637.08 123.5,636.5 Z"/></g>
<g><path style="opacity:1" fill="#727272" d="M 25.5,646.5 C 27.0481,646.821 27.7148,647.821 27.5,649.5C 26.5987,648.71 25.9321,647.71 25.5,646.5 Z"/></g>
<g><path style="opacity:1" fill="#696969" d="M 819.5,647.5 C 821.027,647.427 822.027,648.094 822.5,649.5C 820.973,649.573 819.973,648.906 819.5,647.5 Z"/></g>
<g><path style="opacity:1" fill="#999999" d="M 112.5,645.5 C 111.415,647.587 109.749,648.92 107.5,649.5C 108.585,647.413 110.251,646.08 112.5,645.5 Z"/></g>
<g><path style="opacity:1" fill="#616161" d="M 825.5,652.5 C 827.404,652.738 828.738,653.738 829.5,655.5C 827.596,655.262 826.262,654.262 825.5,652.5 Z"/></g>
<g><path style="opacity:1" fill="#949494" d="M 910.5,649.5 C 909.415,651.587 907.749,652.92 905.5,653.5C 906.585,651.413 908.251,650.08 910.5,649.5 Z"/></g>
<g><path style="opacity:1" fill="#747474" d="M 905.5,653.5 C 905.027,654.906 904.027,655.573 902.5,655.5C 902.973,654.094 903.973,653.427 905.5,653.5 Z"/></g>
<g><path style="opacity:1" fill="#686868" d="M 838.5,663.5 C 840.027,663.427 841.027,664.094 841.5,665.5C 839.973,665.573 838.973,664.906 838.5,663.5 Z"/></g>
<g><path style="opacity:1" fill="#616161" d="M 844.5,668.5 C 846.027,668.427 847.027,669.094 847.5,670.5C 845.973,670.573 844.973,669.906 844.5,668.5 Z"/></g>
<g><path style="opacity:1" fill="#636363" d="M 849.5,672.5 C 851.404,672.738 852.738,673.738 853.5,675.5C 851.596,675.262 850.262,674.262 849.5,672.5 Z"/></g>
<g><path style="opacity:1" fill="#6d6d6d" d="M 855.5,677.5 C 857.027,677.427 858.027,678.094 858.5,679.5C 856.973,679.573 855.973,678.906 855.5,677.5 Z"/></g>
<g><path style="opacity:1" fill="#5b5b5b" d="M 62.5,684.5 C 64.0269,684.427 65.0269,685.094 65.5,686.5C 63.9731,686.573 62.9731,685.906 62.5,684.5 Z"/></g>
<g><path style="opacity:1" fill="#8e8e8e" d="M 872.5,689.5 C 875.152,689.41 877.485,690.076 879.5,691.5C 876.848,691.59 874.515,690.924 872.5,689.5 Z"/></g>
</svg>
